# xmcd CD database file
#
# Track frame offsets:
#	150
#	12005
#	23787
#	36885
#	51675
#	68427
#	89182
#	105947
#	117240
#	131390
#	143992
#	162085
#	168610
#	188692
#	200972
#	214660
#	220947
#	231535
#	243600
#
# Disc length: 3384 seconds
#
# Revision: 0
# Processed by: cddbd v1.5.2PL0 Copyright (c) Steve Scherf et al.
# Submitted via: CDex 1.70beta2
#
DISCID=1a0d3613
DTITLE=Frank Sinatra - Platinum CD1
DYEAR=1998
DGENRE=Jazz
TTITLE0=Something Stupid
TTITLE1=Strangers In The Night
TTITLE2=I Get A Kick Out Of You
TTITLE3=The Lady Is A Tramp
TTITLE4=Here's That Rainy day
TTITLE5=Autumn In New York
TTITLE6=I've Got You Under My Skin
TTITLE7=Nancy
TTITLE8=That's Live
TTITLE9=The Last Dance
TTITLE10=All Or Nothing At All
TTITLE11=This Can't Be Love
TTITLE12=It Was A Very Good Year
TTITLE13=Long Ago And Far Away
TTITLE14=Learnin' The Blues
TTITLE15=Hair Of Gold, Eyes Of Blue
TTITLE16=My Happiness
TTITLE17=Ol' McDonald
TTITLE18=I Wonder Who's Kissing Her Now
EXTD=YEAR: 1998
EXTT0=
EXTT1=
EXTT2=
EXTT3=
EXTT4=
EXTT5=
EXTT6=
EXTT7=
EXTT8=
EXTT9=
EXTT10=
EXTT11=
EXTT12=
EXTT13=
EXTT14=
EXTT15=
EXTT16=
EXTT17=
EXTT18=
PLAYORDER=
